<?xml version="1.0" standalone="no"?>
<!DOCTYPE svg PUBLIC "-//W3C//DTD SVG 20010904//EN"
 "http://www.w3.org/TR/2001/REC-SVG-20010904/DTD/svg10.dtd">
<svg version="1.0" xmlns="http://www.w3.org/2000/svg"
 width="320.000000pt" height="320.000000pt" viewBox="0 0 320.000000 320.000000"
 preserveAspectRatio="xMidYMid meet">
<metadata>
Created by potrace 1.14, written by Peter Selinger 2001-2017
</metadata>
<g transform="translate(0.000000,320.000000) scale(0.100000,-0.100000)"
fill="#000000" stroke="none">
<path d="M475 2732 c-166 -16 -350 -146 -419 -294 -54 -119 -51 -68 -53 -818
-2 -744 -2 -737 49 -847 42 -92 104 -161 197 -222 56 -36 166 -78 211 -80 88
-4 2266 -1 2297 3 93 12 207 71 284 147 67 66 128 177 149 269 6 27 9 312 9
717 0 722 1 708 -52 823 -29 62 -53 95 -116 156 -47 45 -156 113 -186 115 -5
1 -18 5 -28 10 -9 6 -43 12 -75 15 -58 6 -2212 11 -2267 6z m2296 -148 c166
-49 274 -179 293 -356 l3 -28 -1468 0 -1468 0 4 23 c2 12 6 40 10 62 20 133
156 271 300 304 23 5 528 9 1156 10 986 1 1123 -1 1170 -15z m270 -653 l26 -1
0 -487 c0 -432 -2 -495 -17 -551 -10 -34 -25 -71 -34 -81 -9 -9 -16 -23 -16
-29 0 -18 -81 -96 -130 -124 -104 -61 -49 -58 -1281 -58 l-1127 1 -61 24
c-137 53 -223 150 -256 290 -9 36 -12 193 -13 530 l0 480 26 5 c20 4 2764 5
2883 1z"/>
<path d="M410 1532 c-6 -2 -10 -33 -10 -68 l0 -64 267 2 268 3 0 58 c0 33 -2
62 -5 65 -5 7 -501 10 -520 4z"/>
<path d="M400 1200 l0 -67 533 0 533 0 1 67 1 67 -534 0 -534 0 0 -67z"/>
</g>
</svg>
